<?xml version="1.0" standalone="no"?>
<!DOCTYPE svg PUBLIC "-//W3C//DTD SVG 20010904//EN"
 "http://www.w3.org/TR/2001/REC-SVG-20010904/DTD/svg10.dtd">
<svg version="1.0" xmlns="http://www.w3.org/2000/svg"
 width="100.000000pt" height="100.000000pt" viewBox="0 0 100.000000 100.000000"
 preserveAspectRatio="xMidYMid meet">
<metadata>
Created by potrace 1.14, written by Peter Selinger 2001-2017
</metadata>
<g transform="translate(0.000000,100.000000) scale(0.100000,-0.100000)"
fill="#000000" stroke="none">
<path d="M326 968 l-25 -23 23 -56 23 -56 -33 -62 c-27 -52 -32 -70 -28 -108
3 -33 0 -49 -11 -57 -15 -11 -18 -33 -12 -96 6 -54 16 -78 38 -85 14 -5 19
-15 19 -40 0 -27 -7 -38 -32 -56 -48 -33 -58 -50 -46 -72 7 -14 18 -18 39 -15
33 5 32 11 30 -134 0 -94 4 -101 56 -92 34 6 53 21 53 43 1 25 26 64 43 67 9
1 25 -17 41 -46 34 -62 48 -72 87 -66 47 7 61 35 35 72 -8 11 -17 37 -20 58
-5 33 -2 42 24 69 16 17 30 33 30 36 0 3 4 13 10 21 7 12 12 12 29 -4 19 -18
22 -18 46 -2 15 10 25 26 25 39 0 26 -30 62 -58 71 -14 5 -19 17 -21 56 -1 27
-4 57 -5 67 -2 10 -7 47 -11 83 -14 128 -22 156 -54 182 -15 13 -59 39 -99 58
-54 26 -72 40 -72 55 0 53 -20 91 -53 103 -43 16 -42 16 -71 -10z"/>
</g>
</svg>
