<svg width="84" height="73" viewBox="0 0 84 73" fill="none" xmlns="http://www.w3.org/2000/svg">
<path d="M12.5088 47.2H10.54V39.6288H3.82378V47.2H1.86628V30.82H3.82378V37.8625H10.54V30.82H12.5088V47.2ZM24.0963 47.2L23.9725 45.5238C23.5675 46.1238 23.0613 46.5925 22.4538 46.93C21.8463 47.26 21.145 47.425 20.35 47.425C19.7125 47.425 19.135 47.3275 18.6175 47.1325C18.1 46.93 17.6575 46.6188 17.29 46.1988C16.9225 45.7788 16.6375 45.2463 16.435 44.6013C16.24 43.9488 16.1425 43.1688 16.1425 42.2613V35.0275H18.2238V42.2838C18.2238 42.9438 18.2763 43.4913 18.3813 43.9263C18.4863 44.3613 18.6438 44.7063 18.8538 44.9613C19.0638 45.2238 19.3188 45.4075 19.6188 45.5125C19.9263 45.6175 20.2788 45.67 20.6763 45.67C21.1413 45.67 21.5575 45.6175 21.925 45.5125C22.2925 45.4 22.6113 45.2463 22.8813 45.0513C23.1063 44.8938 23.3013 44.7063 23.4663 44.4888C23.6388 44.2638 23.7813 44.02 23.8938 43.7575V35.0275H25.9863V47.2H24.0963ZM30.2388 35.0275H36.46V45.4H40.4313V47.2H30.2388V45.4H34.3788V36.8388H30.2388V35.0275ZM34.1088 31.8325C34.1088 31.6525 34.135 31.4838 34.1875 31.3263C34.2475 31.1688 34.3375 31.0338 34.4575 30.9213C34.555 30.8238 34.6788 30.7488 34.8288 30.6963C34.9863 30.6363 35.1625 30.6063 35.3575 30.6063C35.5525 30.6063 35.725 30.6363 35.875 30.6963C36.025 30.7488 36.1488 30.8238 36.2463 30.9213C36.3663 31.0263 36.4563 31.1575 36.5163 31.315C36.5763 31.4725 36.6063 31.645 36.6063 31.8325C36.6063 32.17 36.5013 32.4513 36.2913 32.6763C36.0813 32.9013 35.77 33.0138 35.3575 33.0138C34.9375 33.0138 34.6225 32.9013 34.4125 32.6763C34.21 32.4513 34.1088 32.17 34.1088 31.8325ZM44.7288 52.1163C44.5338 52.1163 44.305 52.0938 44.0425 52.0488C43.78 52.0038 43.5813 51.9663 43.4463 51.9363L43.7838 50.2375C43.9713 50.2525 44.155 50.2638 44.335 50.2713C44.5225 50.2863 44.6688 50.2938 44.7738 50.2938C45.0588 50.2938 45.3175 50.215 45.55 50.0575C45.79 49.9 46.0038 49.7125 46.1913 49.495C46.3713 49.2775 46.525 49.0525 46.6525 48.82C46.7875 48.5875 46.8925 48.3963 46.9675 48.2463L47.8 46.6263L42.5575 35.0275H44.8863L48.2275 42.88L48.7675 44.3538L49.3413 42.925L52.48 35.0275H54.8088L48.6325 49.0788C48.49 49.3938 48.3063 49.7275 48.0813 50.08C47.8638 50.4325 47.5975 50.7588 47.2825 51.0588C46.9675 51.3588 46.6 51.61 46.18 51.8125C45.76 52.015 45.2763 52.1163 44.7288 52.1163ZM57.9138 35.0275H64.135V45.4H68.1063V47.2H57.9138V45.4H62.0538V36.8388H57.9138V35.0275ZM61.7838 31.8325C61.7838 31.6525 61.81 31.4838 61.8625 31.3263C61.9225 31.1688 62.0125 31.0338 62.1325 30.9213C62.23 30.8238 62.3538 30.7488 62.5038 30.6963C62.6613 30.6363 62.8375 30.6063 63.0325 30.6063C63.2275 30.6063 63.4 30.6363 63.55 30.6963C63.7 30.7488 63.8238 30.8238 63.9213 30.9213C64.0413 31.0263 64.1313 31.1575 64.1913 31.315C64.2513 31.4725 64.2813 31.645 64.2813 31.8325C64.2813 32.17 64.1763 32.4513 63.9663 32.6763C63.7563 32.9013 63.445 33.0138 63.0325 33.0138C62.6125 33.0138 62.2975 32.9013 62.0875 32.6763C61.885 32.4513 61.7838 32.17 61.7838 31.8325Z" fill="white"/>
<path d="M12.44 24.3516V1.76001H82.52V71.84H12.44V49.7095" stroke="white" stroke-width="1.92"/>
</svg>
